<svg width="40" height="40" viewBox="0 0 40 40" fill="none" xmlns="http://www.w3.org/2000/svg">
<path d="M39.4307 9.25806H38.8613V8.7666C38.8136 8.12951 38.57 7.52789 38.1692 7.05726C37.7684 6.58662 37.2333 6.27395 36.649 6.16888C36.5726 6.13116 36.4891 6.11313 36.405 6.11622H35.9658V4.7296C35.9625 3.87417 35.6461 3.0548 35.0855 2.44991C34.5249 1.84502 33.7655 1.5036 32.9728 1.5H7.02726C6.23362 1.5006 5.47264 1.84106 4.91145 2.4466C4.35026 3.05213 4.03474 3.87324 4.03418 4.7296V6.11622H3.57871C3.495 6.11673 3.41216 6.13461 3.33471 6.16888C2.75164 6.27694 2.21822 6.59053 1.81792 7.06057C1.41763 7.53061 1.17304 8.13058 1.12243 8.7666V9.25806H0.553092C0.480281 9.25736 0.408069 9.27232 0.340673 9.30206C0.273278 9.3318 0.212049 9.37573 0.160561 9.43129C0.109074 9.48684 0.0683594 9.55291 0.0407956 9.62563C0.0132318 9.69835 -0.000629191 9.77627 2.19189e-05 9.85484V16.981C-0.000563142 17.0596 0.013343 17.1375 0.0409302 17.2101C0.0685174 17.2828 0.109234 17.3489 0.160708 17.4044C0.212183 17.46 0.273385 17.5039 0.340751 17.5337C0.408117 17.5634 0.480299 17.5784 0.553092 17.5778H2.79791C2.94663 17.5797 3.08999 17.518 3.19667 17.4061C3.30335 17.2943 3.36467 17.1415 3.36724 16.981V9.85484C3.3648 9.69433 3.30352 9.54141 3.19681 9.42956C3.0901 9.31771 2.94666 9.25604 2.79791 9.25806H2.24484V8.7666C2.24484 7.97675 3.13951 7.30977 3.87151 7.30977H4.03418V32.1812C4.03437 32.9724 4.30496 33.7358 4.79417 34.3252C5.28338 34.9146 5.95684 35.2886 6.68566 35.3757V36.5517C6.68829 37.0706 6.8816 37.5672 7.22316 37.9324C7.56473 38.2977 8.02665 38.5018 8.50754 38.5H12.1513C12.6297 38.4982 13.088 38.2923 13.4262 37.9274C13.7645 37.5624 13.9552 37.0679 13.9569 36.5517V35.4108H26.2546V36.5517C26.2563 37.0678 26.4471 37.5623 26.7853 37.9273C27.1236 38.2923 27.5818 38.4981 28.0602 38.5H31.7202C32.1986 38.4982 32.6569 38.2923 32.9951 37.9274C33.3334 37.5624 33.5242 37.0679 33.5258 36.5517V35.3581C34.2113 35.2171 34.8299 34.8228 35.2752 34.243C35.7204 33.6632 35.9647 32.9342 35.9658 32.1812V7.30977H36.1122C36.8605 7.30977 37.7552 7.97675 37.7552 8.7666V9.25806H37.1858C37.113 9.25736 37.0408 9.27232 36.9734 9.30206C36.906 9.3318 36.8448 9.37573 36.7933 9.43129C36.7418 9.48684 36.7011 9.55291 36.6735 9.62563C36.646 9.69835 36.6321 9.77627 36.6328 9.85484V16.981C36.6322 17.0596 36.6461 17.1375 36.6737 17.2101C36.7013 17.2828 36.742 17.3489 36.7935 17.4044C36.8449 17.46 36.9061 17.5039 36.9735 17.5337C37.0409 17.5634 37.1131 17.5784 37.1858 17.5778H39.4307C39.5794 17.5797 39.7227 17.518 39.8294 17.4061C39.9361 17.2943 39.9974 17.1415 40 16.981V9.85484C39.9976 9.69433 39.9363 9.54141 39.8296 9.42956C39.7229 9.31771 39.5794 9.25604 39.4307 9.25806ZM2.24484 16.3842H1.10616V10.4516H2.24484V16.3842ZM5.14032 28.0564H8.01954C7.7644 28.4795 7.62876 28.9734 7.62914 29.4782C7.63108 29.988 7.7664 30.4869 8.01954 30.9174H5.14032V28.0564ZM12.8508 36.5517C12.8494 36.7514 12.7752 36.9425 12.6443 37.0837C12.5135 37.2249 12.3364 37.3049 12.1513 37.3064H8.50754C8.32249 37.3048 8.14544 37.2248 8.01458 37.0836C7.88373 36.9424 7.80956 36.7514 7.80807 36.5517V35.4108H12.8508V36.5517ZM32.4197 36.5517C32.4183 36.7514 32.3441 36.9425 32.2133 37.0837C32.0824 37.2249 31.9053 37.3049 31.7202 37.3064H28.0602C27.8777 37.3012 27.7043 37.2195 27.5767 37.0786C27.4492 36.9377 27.3775 36.7487 27.377 36.5517V35.4108H32.4197V36.5517ZM34.8597 30.9174H31.9642C32.2295 30.4921 32.3712 29.9909 32.3709 29.4782C32.3735 28.9705 32.2316 28.4742 31.9642 28.0564H34.8597V30.9174ZM34.8597 26.8629H29.9309C29.2908 26.8709 28.6794 27.1509 28.2294 27.6421C27.7793 28.1333 27.527 28.7962 27.527 29.4869C27.527 30.1777 27.7793 30.8406 28.2294 31.3318C28.6794 31.823 29.2908 32.103 29.9309 32.111H34.8597V32.1812C34.8594 32.7211 34.6604 33.2387 34.3066 33.6205C33.9529 34.0023 33.4731 34.2169 32.9728 34.2173H7.02726C6.52692 34.2169 6.04717 34.0023 5.69337 33.6205C5.33958 33.2387 5.14066 32.7211 5.14032 32.1812V32.111H10.0529C10.3746 32.115 10.6939 32.0501 10.9922 31.92C11.2905 31.79 11.5619 31.5973 11.7908 31.3533C12.0196 31.1092 12.2012 30.8186 12.3252 30.4982C12.4492 30.1778 12.5131 29.8341 12.5131 29.4869C12.5131 29.1398 12.4492 28.7961 12.3252 28.4757C12.2012 28.1553 12.0196 27.8647 11.7908 27.6206C11.5619 27.3766 11.2905 27.1839 10.9922 27.0539C10.6939 26.9238 10.3746 26.8589 10.0529 26.8629H5.14032V20.5968L8.88168 22.194C8.95045 22.2156 9.02154 22.2274 9.09314 22.2291H30.9069C30.973 22.226 31.0386 22.2142 31.1021 22.194L34.8597 20.5968V26.8629ZM31.2647 29.4782C31.2632 29.8594 31.1222 30.2245 30.8724 30.4941C30.6225 30.7636 30.2842 30.9158 29.9309 30.9174C29.7568 30.9163 29.5846 30.8782 29.4241 30.8052C29.2637 30.7323 29.1182 30.6259 28.9958 30.4923C28.8735 30.3586 28.7767 30.2003 28.7111 30.0263C28.6454 29.8523 28.6122 29.666 28.6133 29.4782C28.6125 29.2912 28.6461 29.106 28.712 28.9331C28.778 28.7603 28.875 28.6032 28.9975 28.471C29.12 28.3389 29.2656 28.2342 29.4258 28.163C29.586 28.0918 29.7576 28.0556 29.9309 28.0564C30.2825 28.0542 30.6205 28.2026 30.8707 28.4693C31.1208 28.7359 31.2626 29.0988 31.2647 29.4782ZM8.73527 29.4782C8.74073 29.1027 8.8828 28.7445 9.13083 28.481C9.37886 28.2176 9.71296 28.0699 10.061 28.0699C10.4091 28.0699 10.7432 28.2176 10.9912 28.481C11.2392 28.7445 11.3813 29.1027 11.3868 29.4782C11.3895 29.6679 11.3573 29.8563 11.2919 30.0325C11.2265 30.2087 11.1293 30.369 11.0059 30.5043C10.8825 30.6395 10.7354 30.7469 10.5732 30.8202C10.411 30.8935 10.2369 30.9313 10.061 30.9313C9.88515 30.9313 9.71104 30.8935 9.54882 30.8202C9.38661 30.7469 9.23953 30.6395 9.11615 30.5043C8.99277 30.369 8.89555 30.2087 8.83016 30.0325C8.76478 29.8563 8.73252 29.6679 8.73527 29.4782ZM23.3591 21.0356C23.4853 20.1463 23.9024 19.3351 24.5351 18.7491C25.1677 18.163 25.9739 17.8408 26.8077 17.8408C27.6414 17.8408 28.4476 18.163 29.0802 18.7491C29.7129 19.3351 30.13 20.1463 30.2562 21.0356H23.3591ZM34.8597 19.3155L31.3461 20.7898C31.1642 19.6115 30.594 18.5437 29.7404 17.783C28.8868 17.0223 27.8073 16.6198 26.7006 16.6497C25.5938 16.6796 24.5343 17.1399 23.7171 17.9458C22.8999 18.7516 22.3799 19.8489 22.253 21.0356H9.19074L5.14032 19.3155V7.30977H34.8597V19.3155ZM34.8597 6.11622H5.14016V4.7296C5.14062 4.46319 5.18987 4.1995 5.28506 3.95369C5.38025 3.70787 5.51952 3.48478 5.69486 3.29721C5.8702 3.10965 6.07816 2.96131 6.30679 2.86073C6.53541 2.76015 6.78021 2.7093 7.0271 2.7111H32.9726C33.2195 2.7093 33.4643 2.76015 33.6929 2.86073C33.9215 2.96131 34.1295 3.10965 34.3048 3.29721C34.4802 3.48478 34.6194 3.70787 34.7146 3.95369C34.8098 4.1995 34.8591 4.46319 34.8595 4.7296L34.8597 6.11622ZM38.8776 16.3842H37.7389V10.4516H38.8776V16.3842Z" fill="#17181D"/>
<path d="M10.8492 5.08063H16.1847C16.3317 5.08063 16.4727 5.01761 16.5767 4.90543C16.6807 4.79325 16.7391 4.6411 16.7391 4.48246C16.7391 4.32381 16.6807 4.17166 16.5767 4.05948C16.4727 3.9473 16.3317 3.88428 16.1847 3.88428H10.8492C10.7022 3.88428 10.5612 3.9473 10.4572 4.05948C10.3532 4.17166 10.2948 4.32381 10.2948 4.48246C10.2948 4.6411 10.3532 4.79325 10.4572 4.90543C10.5612 5.01761 10.7022 5.08063 10.8492 5.08063Z" fill="#17181D"/>
<path d="M8.22636 5.31003C8.37812 5.30993 8.52645 5.26128 8.65259 5.17023C8.77873 5.07918 8.87702 4.94982 8.93504 4.7985C8.99306 4.64718 9.0082 4.4807 8.97854 4.32011C8.94889 4.15951 8.87577 4.012 8.76844 3.89623C8.6611 3.78046 8.52437 3.70163 8.37552 3.6697C8.22667 3.63777 8.07238 3.65418 7.93217 3.71685C7.79196 3.77951 7.67212 3.88563 7.58779 4.02177C7.50346 4.15792 7.45844 4.31799 7.4584 4.48174C7.45838 4.59055 7.47823 4.6983 7.51682 4.79882C7.55541 4.89935 7.61199 4.99069 7.68331 5.06761C7.75463 5.14453 7.83929 5.20553 7.93247 5.24713C8.02565 5.28873 8.12552 5.3101 8.22636 5.31003Z" fill="#17181D"/>
<path d="M14.9215 24.8329C14.8486 24.8328 14.7764 24.8482 14.7091 24.8783C14.6417 24.9083 14.5805 24.9524 14.529 25.0079C14.4774 25.0635 14.4365 25.1295 14.4086 25.2021C14.3807 25.2748 14.3663 25.3526 14.3663 25.4312V31.6566C14.3663 31.8155 14.4248 31.9679 14.5289 32.0802C14.633 32.1926 14.7742 32.2557 14.9215 32.2557C15.0687 32.2557 15.2099 32.1926 15.314 32.0802C15.4181 31.9679 15.4766 31.8155 15.4766 31.6566V25.4312C15.4766 25.3526 15.4622 25.2748 15.4343 25.2021C15.4064 25.1295 15.3655 25.0635 15.3139 25.0079C15.2624 24.9524 15.2012 24.9083 15.1338 24.8783C15.0665 24.8482 14.9943 24.8328 14.9215 24.8329Z" fill="#17181D"/>
<path d="M18.3056 24.8329C18.2328 24.8328 18.1606 24.8482 18.0933 24.8783C18.0259 24.9083 17.9647 24.9524 17.9132 25.0079C17.8616 25.0635 17.8207 25.1295 17.7928 25.2021C17.7649 25.2748 17.7505 25.3526 17.7505 25.4312V31.6566C17.7505 31.8155 17.809 31.9679 17.9131 32.0802C18.0172 32.1926 18.1584 32.2557 18.3056 32.2557C18.4529 32.2557 18.5941 32.1926 18.6982 32.0802C18.8023 31.9679 18.8608 31.8155 18.8608 31.6566V25.4312C18.8608 25.3526 18.8464 25.2748 18.8185 25.2021C18.7906 25.1295 18.7497 25.0635 18.6981 25.0079C18.6466 24.9524 18.5854 24.9083 18.518 24.8783C18.4507 24.8482 18.3785 24.8328 18.3056 24.8329Z" fill="#17181D"/>
<path d="M21.6893 24.8329C21.6164 24.8328 21.5442 24.8482 21.4769 24.8783C21.4095 24.9083 21.3483 24.9524 21.2968 25.0079C21.2452 25.0635 21.2043 25.1295 21.1764 25.2021C21.1485 25.2748 21.1341 25.3526 21.1341 25.4312V31.6566C21.1341 31.8155 21.1926 31.9679 21.2967 32.0802C21.4008 32.1926 21.542 32.2557 21.6893 32.2557C21.8365 32.2557 21.9777 32.1926 22.0819 32.0802C22.186 31.9679 22.2445 31.8155 22.2445 31.6566V25.4312C22.2444 25.3526 22.2301 25.2748 22.2021 25.2021C22.1742 25.1295 22.1333 25.0635 22.0818 25.0079C22.0302 24.9524 21.969 24.9083 21.9017 24.8783C21.8343 24.8482 21.7621 24.8328 21.6893 24.8329Z" fill="#17181D"/>
<path d="M25.0739 24.8329C25.0011 24.8328 24.9289 24.8482 24.8615 24.8783C24.7942 24.9083 24.733 24.9524 24.6814 25.0079C24.6299 25.0635 24.589 25.1295 24.5611 25.2021C24.5331 25.2748 24.5188 25.3526 24.5187 25.4312V31.6566C24.5187 31.8155 24.5772 31.9679 24.6813 32.0802C24.7855 32.1926 24.9267 32.2557 25.0739 32.2557C25.2212 32.2557 25.3624 32.1926 25.4665 32.0802C25.5706 31.9679 25.6291 31.8155 25.6291 31.6566V25.4312C25.6291 25.3526 25.6147 25.2748 25.5868 25.2021C25.5589 25.1295 25.518 25.0635 25.4664 25.0079C25.4149 24.9524 25.3537 24.9083 25.2863 24.8783C25.219 24.8482 25.1468 24.8328 25.0739 24.8329Z" fill="#17181D"/>
<path d="M11.9389 14.0205C12.042 14.0211 12.143 13.9902 12.2304 13.9313L16.4774 11.0963C16.5405 11.0555 16.5954 11.0015 16.639 10.9376C16.6827 10.8737 16.714 10.801 16.7314 10.7239C16.7487 10.6467 16.7517 10.5666 16.7401 10.4882C16.7285 10.4098 16.7026 10.3347 16.6638 10.2672C16.6251 10.1997 16.5743 10.1412 16.5144 10.0951C16.4545 10.049 16.3867 10.0162 16.3149 9.99863C16.2432 9.98105 16.1689 9.97904 16.0964 9.99272C16.0239 10.0064 15.9547 10.0355 15.8927 10.0783L11.6458 12.9133C11.5431 12.9818 11.4639 13.0846 11.4202 13.2061C11.3766 13.3276 11.3709 13.4612 11.4041 13.5865C11.4372 13.7118 11.5073 13.822 11.6038 13.9004C11.7003 13.9787 11.8182 14.0208 11.9389 14.0205Z" fill="#17181D"/>
<path d="M14.6393 14.3448L10.5671 16.9313C10.4427 17.0133 10.3532 17.1447 10.3179 17.2973C10.2826 17.4498 10.3043 17.6113 10.3784 17.7467C10.4524 17.8822 10.5728 17.9808 10.7136 18.0213C10.8544 18.0618 11.0044 18.0409 11.131 17.9631L15.2033 15.3765C15.3301 15.2958 15.4219 15.164 15.4587 15.0102C15.4955 14.8564 15.4741 14.6932 15.3994 14.5564C15.3246 14.4195 15.2025 14.3204 15.0599 14.2807C14.9174 14.241 14.7661 14.2641 14.6393 14.3448Z" fill="#17181D"/>
<path d="M18.6744 15.6165L15.9373 17.0888C15.8709 17.1232 15.8114 17.1715 15.7625 17.2309C15.7135 17.2903 15.6759 17.3596 15.652 17.4348C15.628 17.51 15.6182 17.5896 15.6231 17.6689C15.6279 17.7483 15.6473 17.8258 15.6802 17.8969C15.7131 17.9681 15.7587 18.0315 15.8145 18.0834C15.8703 18.1354 15.9351 18.1748 16.0052 18.1995C16.0752 18.2242 16.1491 18.2336 16.2226 18.2271C16.296 18.2207 16.3676 18.1985 16.433 18.162L19.17 16.6895C19.3019 16.6186 19.4023 16.494 19.449 16.3433C19.4958 16.1925 19.4851 16.0279 19.4194 15.8856C19.3537 15.7433 19.2383 15.635 19.0985 15.5846C18.9588 15.5341 18.8063 15.5456 18.6744 15.6165Z" fill="#17181D"/>
</svg>
