<svg width="40" height="40" viewBox="0 0 40 40" fill="none" xmlns="http://www.w3.org/2000/svg">
<mask id="mask0_1479_53" style="mask-type:alpha" maskUnits="userSpaceOnUse" x="0" y="0" width="40" height="40">
<rect width="40" height="40" fill="#D9D9D9"/>
</mask>
<g mask="url(#mask0_1479_53)">
<path d="M3.84845 13.556L13.3652 3.92747L26.9029 3.84841L36.5314 13.3651L36.6105 26.9029L27.0938 36.5314L13.556 36.6105L3.92752 27.0937L3.84845 13.556Z" stroke="black" stroke-width="1.5"/>
<path d="M12.9983 19.8463C11.6509 19.2635 11.0357 19.2034 11.0357 18.3077C11.0357 17.2393 12.2274 17.2409 12.545 17.7188C12.6699 17.913 12.7331 18.1905 12.7331 18.5528H14.1992V18.3401C14.1992 17.9793 14.1406 17.6694 14.0235 17.4104C13.6381 16.5564 12.7855 16.302 11.8544 16.302C11.1236 16.302 10.5516 16.487 10.1354 16.8539C9.24432 17.6386 9.15182 19.6597 10.6133 20.4506C11.4797 20.9224 12.525 20.9856 12.784 21.6762C12.8796 21.9383 12.9289 22.5334 12.5697 22.8232C12.1658 23.1516 11.4427 23.1285 11.1329 22.7323C10.9139 22.4548 10.9309 22.0139 10.9309 21.6608H9.40002C9.40002 22.3854 9.42315 23.0421 9.95811 23.5817C10.7027 24.3341 12.8133 24.331 13.746 23.5971C14.7003 22.8494 14.9069 20.6849 12.9983 19.8463ZM19.6429 16.4515H14.802V17.7034H16.4578V24.0288H17.9856V17.7034H19.6413V16.4515H19.6429ZM28.8744 16.4515H26.2011V24.0288H27.7289V21.0056C28.5891 21.0056 28.9946 21.0334 29.5326 20.8669C31.5646 20.2363 31.5661 16.4515 28.8744 16.4515ZM29.1457 19.6027C28.805 19.9341 28.4458 19.8786 27.7289 19.8786V17.5754C28.4057 17.5754 28.8944 17.523 29.1811 17.8729C29.5049 18.2661 29.5296 19.2265 29.1457 19.6027ZM24.8691 17.4058C24.6872 17.0589 24.4282 16.7891 24.0859 16.5949C23.403 16.2018 22.0355 16.2018 21.3495 16.5949C21.0103 16.7891 20.7513 17.0605 20.5709 17.4058C19.9851 18.5312 19.9805 21.9429 20.5709 23.073C20.7513 23.4199 21.0103 23.685 21.3495 23.87C22.0355 24.2416 23.403 24.24 24.0859 23.87C24.4282 23.685 24.6872 23.4199 24.8691 23.073C25.4565 21.9429 25.4549 18.5328 24.8691 17.4058ZM23.5834 22.4101C23.292 23.2904 22.1434 23.2904 21.8536 22.4101C21.5992 21.6469 21.5977 18.8581 21.8536 18.0749C22.1434 17.1823 23.2935 17.1869 23.5834 18.0749C23.8393 18.8534 23.8393 21.6423 23.5834 22.4101Z" fill="black"/>
</g>
</svg>
