<svg width="24" height="24" viewBox="0 0 24 24" fill="none" xmlns="http://www.w3.org/2000/svg">
<g clip-path="url(#clip0_1436_37)">
<path d="M1.48089 15.837C1.46719 15.8388 1.45348 15.8388 1.44051 15.8418C1.4231 15.8455 1.40643 15.8525 1.38901 15.8577C1.37197 15.8633 1.35382 15.867 1.33752 15.874C1.32381 15.88 1.31121 15.8885 1.29787 15.8955C1.27972 15.9052 1.26082 15.9137 1.24378 15.9252C1.23118 15.9337 1.22044 15.9448 1.20858 15.9544C1.19265 15.9674 1.17561 15.9796 1.16116 15.9941C1.15227 16.003 1.14523 16.0137 1.13708 16.0233C1.12152 16.0415 1.10522 16.06 1.09188 16.08C1.09114 16.0815 1.08966 16.0826 1.08855 16.0841C1.08188 16.0941 1.07817 16.1056 1.07262 16.116C1.0615 16.136 1.04965 16.1556 1.04112 16.1775C1.03483 16.1934 1.03112 16.2097 1.02593 16.226C1.02038 16.2445 1.01408 16.2627 1.01037 16.2816C1.0063 16.302 1.00556 16.322 1.00408 16.3427C1.00333 16.3568 1 16.3705 1 16.3849C1 16.3872 1.00037 16.389 1.00074 16.3912C1.00074 16.4112 1.00408 16.4305 1.00667 16.4505C1.00889 16.4676 1.00926 16.485 1.01297 16.5016C1.01482 16.5116 1.01927 16.5209 1.02186 16.5305C1.02853 16.5557 1.0352 16.5806 1.0452 16.6043C1.04631 16.6069 1.04816 16.6091 1.04927 16.6117C1.06261 16.6417 1.07817 16.6706 1.09633 16.6976C1.10225 16.7062 1.11003 16.7136 1.1167 16.7221C1.13226 16.7421 1.14745 16.7625 1.16524 16.7803C1.17339 16.788 1.18339 16.7947 1.19191 16.8025C1.21081 16.8192 1.23007 16.8355 1.25082 16.8495C1.2523 16.8503 1.25341 16.8518 1.2549 16.8529L10.6627 22.9115C10.9206 23.0775 11.2648 23.0034 11.4307 22.7451C11.4908 22.6521 11.5193 22.548 11.5193 22.4447C11.5193 22.262 11.4293 22.0831 11.2644 21.9767L3.44486 16.9407L22.3646 16.9407C22.6714 16.9407 22.9203 16.6921 22.9203 16.3849C22.9203 16.0778 22.6714 15.8292 22.3646 15.8292L1.55573 15.8292C1.55388 15.8292 1.55203 15.8296 1.55018 15.8296C1.52683 15.8299 1.50386 15.8337 1.48089 15.837Z" fill="black"/>
<path d="M12.49 1.25486C12.3236 1.51309 12.3981 1.8569 12.656 2.02288L20.4755 7.05931L1.55573 7.05931C1.2486 7.05931 1 7.30828 1 7.61504C1 7.92181 1.2486 8.17078 1.55573 8.17078L22.3646 8.17078C22.3665 8.17078 22.3679 8.17041 22.3698 8.17041C22.3946 8.17003 22.4191 8.16633 22.4435 8.16262C22.4554 8.16077 22.4676 8.16077 22.4798 8.15818C22.5013 8.15373 22.5213 8.14595 22.5424 8.13854C22.5558 8.1341 22.5695 8.13113 22.5825 8.12595C22.6047 8.11668 22.6254 8.10335 22.6466 8.09112C22.6558 8.08519 22.6669 8.08149 22.6758 8.07482C22.6925 8.0637 22.7073 8.04963 22.7225 8.03629C22.7347 8.02629 22.7477 8.01702 22.7588 8.00591C22.7688 7.9959 22.777 7.98331 22.7862 7.97256C22.8007 7.95552 22.8159 7.93848 22.8285 7.91958C22.8292 7.9181 22.8307 7.91662 22.8318 7.91514C22.8344 7.91106 22.8351 7.90699 22.8377 7.90291C22.86 7.8666 22.8766 7.82807 22.8907 7.78695C22.8944 7.77583 22.8985 7.76435 22.9011 7.75286C22.9122 7.70878 22.9203 7.66321 22.9207 7.61578C22.9207 7.61541 22.9207 7.61504 22.9207 7.61467C22.9207 7.57132 22.9144 7.52946 22.9052 7.48908C22.9026 7.47759 22.8981 7.46648 22.8952 7.45536C22.8866 7.42646 22.8759 7.39831 22.8625 7.37126C22.8563 7.35829 22.8496 7.34607 22.8422 7.33347C22.827 7.30791 22.8099 7.2842 22.7914 7.2616C22.7833 7.25159 22.7755 7.24122 22.7666 7.23159C22.7373 7.20084 22.7051 7.17342 22.6695 7.14971C22.668 7.14897 22.6673 7.14749 22.6658 7.14674L13.258 1.08777C13.0001 0.922161 12.656 0.996629 12.49 1.25486Z" fill="black"/>
</g>
<defs>
<clipPath id="clip0_1436_37">
<rect width="22" height="21.9203" fill="white" transform="translate(1 23) rotate(-90)"/>
</clipPath>
</defs>
</svg>
