<svg width="27" height="27" viewBox="0 0 27 27" fill="none" xmlns="http://www.w3.org/2000/svg">
<path d="M24 3H3L1.5 4.5V9H25.5V4.5L24 3Z" fill="#CECECE"/>
<path d="M23.6791 3.09839H3.46521C2.26909 3.09839 1.29944 4.08923 1.29944 5.3115V23.0164C1.29944 24.2387 2.26909 25.2295 3.46521 25.2295H23.6791C24.8752 25.2295 25.8449 24.2387 25.8449 23.0164V5.3115C25.8449 4.08923 24.8752 3.09839 23.6791 3.09839Z" stroke="#CECECE"/>
<path d="M1.5 9H25.5561" stroke="#CECECE" stroke-linecap="square"/>
<path d="M7.21921 1.6967C7.21921 1.65595 7.18689 1.62292 7.14702 1.62292C7.10715 1.62292 7.07483 1.65595 7.07483 1.6967V4.49997C7.07483 4.54072 7.10715 4.57374 7.14702 4.57374C7.18689 4.57374 7.21921 4.54072 7.21921 4.49997V1.6967Z" stroke="#CECECE"/>
<path d="M20.214 1.6967C20.214 1.65595 20.1816 1.62292 20.1418 1.62292C20.1019 1.62292 20.0696 1.65595 20.0696 1.6967V4.49997C20.0696 4.54072 20.1019 4.57374 20.1418 4.57374C20.1816 4.57374 20.214 4.54072 20.214 4.49997V1.6967Z" stroke="#CECECE"/>
<path d="M7.3636 12.6885H6.78606C6.14813 12.6885 5.63098 13.2169 5.63098 13.8688V14.459C5.63098 15.1108 6.14813 15.6393 6.78606 15.6393H7.3636C8.00153 15.6393 8.51868 15.1108 8.51868 14.459V13.8688C8.51868 13.2169 8.00153 12.6885 7.3636 12.6885Z" stroke="#CECECE"/>
<path d="M7.3636 18.5902H6.78606C6.14813 18.5902 5.63098 19.1187 5.63098 19.7705V20.3607C5.63098 21.0126 6.14813 21.541 6.78606 21.541H7.3636C8.00153 21.541 8.51868 21.0126 8.51868 20.3607V19.7705C8.51868 19.1187 8.00153 18.5902 7.3636 18.5902Z" stroke="#CECECE"/>
<path d="M13.8609 12.6885H13.2834C12.6454 12.6885 12.1283 13.2169 12.1283 13.8688V14.459C12.1283 15.1108 12.6454 15.6393 13.2834 15.6393H13.8609C14.4988 15.6393 15.016 15.1108 15.016 14.459V13.8688C15.016 13.2169 14.4988 12.6885 13.8609 12.6885Z" stroke="#CECECE"/>
<path d="M13.8609 18.5902H13.2834C12.6454 18.5902 12.1283 19.1187 12.1283 19.7705V20.3607C12.1283 21.0126 12.6454 21.541 13.2834 21.541H13.8609C14.4988 21.541 15.016 21.0126 15.016 20.3607V19.7705C15.016 19.1187 14.4988 18.5902 13.8609 18.5902Z" stroke="#CECECE"/>
<path d="M20.3582 12.6885H19.7807C19.1428 12.6885 18.6256 13.2169 18.6256 13.8688V14.459C18.6256 15.1108 19.1428 15.6393 19.7807 15.6393H20.3582C20.9962 15.6393 21.5133 15.1108 21.5133 14.459V13.8688C21.5133 13.2169 20.9962 12.6885 20.3582 12.6885Z" stroke="#CECECE"/>
<path d="M20.3582 18.5902H19.7807C19.1428 18.5902 18.6256 19.1187 18.6256 19.7705V20.3607C18.6256 21.0126 19.1428 21.541 19.7807 21.541H20.3582C20.9962 21.541 21.5133 21.0126 21.5133 20.3607V19.7705C21.5133 19.1187 20.9962 18.5902 20.3582 18.5902Z" stroke="#CECECE"/>
</svg>
