<svg width="27" height="27" viewBox="0 0 27 27" fill="none" xmlns="http://www.w3.org/2000/svg">
<path d="M13 18.5V24.5H17V18.5H13Z" fill="#CECECE"/>
<path d="M2 11.5L4.5 9.76087M25 11.5L22.5 9.76087M4.5 9.76087C4.5 9.76087 4.5 23 4.5 23.5C4.5 24 5 24.5 5.5 24.5C5.93244 24.5 11.5771 24.5 13 24.5M4.5 9.76087L5.5 9.06522M22.5 9.76087L13.5 3.5L7.5 7.67391M22.5 9.76087C22.5 9.76087 22.5 23 22.5 23.5C22.5 24 22 24.5 21.5 24.5C21 24.5 17 24.5 17 24.5M5.5 9.06522C5.5 9.06522 5.5 5.5 5.5 5C5.5 4.5 6 4.5 6 4.5H7C7 4.5 7.5 4.5 7.5 5C7.5 5.5 7.5 7.67391 7.5 7.67391M5.5 9.06522L7.5 7.67391M13 24.5H17M13 24.5C13 24.5 13 18.8 13 18.5C13 18.2 13 18 13.5 18C14 18 16 18 16.5 18C17 18 17 18.5 17 18.8C17 19.0999 17 24.5 17 24.5" stroke="#CECECE" stroke-width="2" stroke-linecap="round"/>
</svg>
