<svg width="24" height="24" viewBox="0 0 24 24" fill="none" xmlns="http://www.w3.org/2000/svg">
<path d="M12.3327 2C8.29016 2 5 5.29147 5 9.33405C5 16.4472 11.9199 21.8548 11.9199 21.8548C12.163 22.0484 12.5077 22.0484 12.7508 21.8548C12.7508 21.8548 19.672 16.4472 19.672 9.33405C19.672 5.29147 16.3753 2 12.3327 2ZM12.3327 6.00169C14.166 6.00169 15.6703 7.50082 15.6703 9.33405C15.6703 11.1673 14.166 12.6703 12.3327 12.6703C10.4995 12.6703 9.00038 11.1673 9.00039 9.33405C9.00039 7.50082 10.4995 6.00169 12.3327 6.00169Z" fill="#FFD36E"/>
</svg>
