<svg width="24" height="24" viewBox="0 0 24 24" fill="none" xmlns="http://www.w3.org/2000/svg">
<path d="M11.9997 21.2008C6.9307 21.2008 2.80664 17.0767 2.80664 12.0077C2.80664 6.93865 6.9307 2.81482 11.9997 2.81482C17.0688 2.81482 21.1928 6.93865 21.1928 12.0077C21.1928 17.0767 17.0688 21.2008 11.9997 21.2008ZM11.9997 3.71823C7.42893 3.71823 3.71005 7.43688 3.71005 12.0077C3.71005 16.5787 7.42893 20.2974 11.9997 20.2974C16.5705 20.2974 20.2894 16.5787 20.2894 12.0077C20.2894 7.43688 16.5705 3.71823 11.9997 3.71823Z" fill="#17181D"/>
<path d="M11.9997 16.5053C9.51966 16.5053 7.50189 14.4878 7.50189 12.0077C7.50189 9.52763 9.51966 7.50964 11.9997 7.50964C14.4798 7.50964 16.4978 9.52741 16.4978 12.0077C16.4978 14.488 14.4798 16.5053 11.9997 16.5053ZM11.9997 8.41305C10.0179 8.41305 8.4053 10.0256 8.4053 12.0077C8.4053 13.9893 10.0179 15.6019 11.9997 15.6019C13.9818 15.6019 15.5944 13.9893 15.5944 12.0077C15.5944 10.0256 13.9818 8.41305 11.9997 8.41305Z" fill="#17181D"/>
<path d="M11.9998 3.7182C11.7505 3.7182 11.5481 3.51584 11.5481 3.2665V0.451704C11.5481 0.202364 11.7505 0 11.9998 0C12.2491 0 12.4515 0.202364 12.4515 0.451704V3.26627C12.4515 3.51584 12.2494 3.7182 11.9998 3.7182Z" fill="#17181D"/>
<path d="M11.9998 24C11.7505 24 11.5481 23.7976 11.5481 23.5483V20.7491C11.5481 20.4997 11.7505 20.2974 11.9998 20.2974C12.2491 20.2974 12.4515 20.4997 12.4515 20.7491V23.5483C12.4515 23.7976 12.2494 24 11.9998 24Z" fill="#17181D"/>
<path d="M3.25837 12.4593H0.451704C0.202364 12.4593 0 12.257 0 12.0076C0 11.758 0.202364 11.5559 0.451704 11.5559H3.25837C3.50771 11.5559 3.71007 11.758 3.71007 12.0076C3.71007 12.257 3.50771 12.4593 3.25837 12.4593Z" fill="#17181D"/>
<path d="M23.5483 12.4593H20.7412C20.4919 12.4593 20.2895 12.257 20.2895 12.0076C20.2895 11.758 20.4919 11.5559 20.7412 11.5559H23.5483C23.7977 11.5559 24 11.758 24 12.0076C24 12.257 23.7977 12.4593 23.5483 12.4593Z" fill="#17181D"/>
</svg>
