<svg width="24" height="24" viewBox="0 0 24 24" fill="none" xmlns="http://www.w3.org/2000/svg">
<path d="M20.6546 4.73365C20.4845 4.6316 20.2804 4.6316 20.1104 4.69964L18.8517 5.31194C18.5796 5.448 18.4435 5.78817 18.5796 6.09432C18.7157 6.36645 19.0558 6.50252 19.362 6.36645L19.7702 6.16235L19.8382 18.8505L15.1439 21.1297V12.4214C15.1439 12.1153 14.8718 11.8431 14.5656 11.8431C14.2595 11.8431 13.9874 12.1153 13.9874 12.4214V21.1977L8.61274 19.0206V16.7755C9.22504 16.1292 10.8578 14.2243 10.8578 12.9657C10.8578 11.605 9.87136 10.4484 8.61274 10.2103V6.02629L9.63324 6.36645C9.93939 6.4685 10.2455 6.29842 10.3476 6.02629C10.4496 5.75415 10.2796 5.41399 10.0074 5.31194L8.20454 4.69964C8.06848 4.66562 7.89839 4.66562 7.76233 4.73365L3.23812 6.97875C3.10205 7.0808 3 7.2849 3 7.489V21.4358C3 21.6399 3.10205 21.81 3.27213 21.912C3.44222 22.0141 3.64632 22.0481 3.8164 21.9461L8.20454 20.0751L14.3956 22.5584C14.4636 22.5924 14.5316 22.5924 14.5997 22.5924C14.7017 22.5924 14.7697 22.5584 14.8378 22.5243L20.6886 19.701C20.8927 19.5989 21.0288 19.3948 20.9948 19.1907L20.8927 5.2439C20.9268 5.0398 20.8247 4.8357 20.6546 4.73365ZM9.76931 12.9657C9.76931 13.544 8.88487 14.8026 8.10249 15.721C7.32011 14.8026 6.43568 13.578 6.43568 12.9657C6.43568 12.0472 7.18404 11.2989 8.10249 11.2989C9.02094 11.2989 9.76931 12.0472 9.76931 12.9657ZM4.15656 7.82917L7.52421 6.16235V10.2103C6.23158 10.4825 5.27911 11.605 5.27911 12.9657C5.27911 14.2243 6.91191 16.1292 7.52421 16.7755V19.1227L4.15656 20.5854V7.82917Z" fill="#17181D"/>
<path d="M7.38818 12.9997C7.38818 13.3739 7.69433 13.68 8.06852 13.68C8.4427 13.68 8.74885 13.3739 8.74885 12.9997C8.74885 12.6255 8.4427 12.3193 8.06852 12.3193C7.69433 12.3193 7.38818 12.6255 7.38818 12.9997Z" fill="#17181D"/>
<path d="M14.5997 1.40002C12.4566 1.40002 10.7218 3.13487 10.7218 5.27792C10.7218 7.2849 13.9194 10.6525 14.2595 11.0267L14.5657 11.3329L14.8718 11.0267C15.246 10.6525 18.4096 7.2849 18.4096 5.27792C18.4436 3.13487 16.7087 1.40002 14.5997 1.40002ZM14.5997 3.98529C15.246 3.98529 15.7903 4.49554 15.7903 5.17587C15.7903 5.82218 15.28 6.36645 14.5997 6.36645C13.9194 6.36645 13.4091 5.8562 13.4091 5.17587C13.4091 4.52955 13.9534 3.98529 14.5997 3.98529Z" fill="#17181D"/>
</svg>
