<svg width="24" height="24" viewBox="0 0 24 24" fill="none" xmlns="http://www.w3.org/2000/svg">
<path d="M2.6817 12C2.64533 12.0001 2.60902 11.9973 2.57308 11.9916C2.39524 11.9625 2.23586 11.8617 2.12995 11.7113C2.02404 11.561 1.98027 11.3734 2.00826 11.1897C2.3241 9.10651 3.28957 7.18656 4.75814 5.72131C6.22671 4.25605 8.11818 3.3255 10.1455 3.0709C12.1727 2.81629 14.2251 3.25154 15.991 4.31057C17.757 5.3696 19.1401 6.99459 19.9304 8.93889C19.9712 9.02457 19.9946 9.11796 19.9992 9.21331C20.0037 9.30867 19.9894 9.40398 19.957 9.49342C19.9247 9.58285 19.875 9.66451 19.8109 9.73339C19.7469 9.80227 19.6699 9.85692 19.5847 9.89399C19.4995 9.93106 19.4078 9.94976 19.3154 9.94895C19.2229 9.94814 19.1316 9.92784 19.047 9.88929C18.9624 9.85073 18.8863 9.79474 18.8234 9.72475C18.7606 9.65476 18.7122 9.57224 18.6813 9.48225C18.0057 7.81878 16.8229 6.42834 15.3124 5.52208C13.8018 4.61581 12.0462 4.24322 10.3119 4.46087C8.57767 4.67852 6.95957 5.47453 5.70331 6.72802C4.44705 7.98152 3.62127 9.62403 3.35133 11.4062C3.3266 11.5713 3.24554 11.7219 3.12275 11.8308C2.99997 11.9397 2.84355 11.9997 2.6817 12Z" fill="#17181D"/>
<path d="M20.2523 11H20.2466L14.7031 10.9574C14.5159 10.9566 14.3366 10.8811 14.2048 10.7473C14.0729 10.6136 13.9993 10.4326 14 10.2443C14.0008 10.0559 14.0758 9.87551 14.2088 9.74284C14.3417 9.61017 14.5215 9.53606 14.7088 9.53681H14.7144L19.5531 9.57375L19.5898 4.70517C19.5912 4.51797 19.6659 4.33888 19.7978 4.20683C19.9296 4.07477 20.108 4.00044 20.2941 4H20.2991C20.4864 4.0015 20.6654 4.07776 20.7969 4.21201C20.9283 4.34627 21.0013 4.52753 21 4.71597L20.9582 10.2948C20.9567 10.4823 20.8817 10.6615 20.7495 10.7936C20.6173 10.9257 20.4386 10.9999 20.2523 11Z" fill="#17181D"/>
<path d="M11.7226 22C9.87446 21.9969 8.06812 21.4319 6.52921 20.3756C4.9903 19.3193 3.78701 17.8185 3.06962 16.0607C3.02882 15.975 3.00542 15.8816 3.00083 15.7863C2.99625 15.691 3.01059 15.5957 3.04296 15.5062C3.07534 15.4168 3.12508 15.3352 3.18912 15.2663C3.25316 15.1975 3.33016 15.1428 3.41539 15.1058C3.50063 15.0687 3.5923 15.05 3.68479 15.0508C3.77727 15.0516 3.86862 15.0719 3.95324 15.1105C4.03785 15.149 4.11394 15.205 4.17684 15.275C4.23974 15.3449 4.28813 15.4274 4.31904 15.5174C4.99562 17.1793 6.17898 18.5681 7.68958 19.4731C9.20017 20.3781 10.9556 20.7499 12.6894 20.5321C14.4233 20.3143 16.0411 19.5188 17.2972 18.2663C18.5533 17.0137 19.3794 15.3725 19.6499 13.5916C19.6638 13.5007 19.695 13.4135 19.7415 13.335C19.7881 13.2565 19.8492 13.1882 19.9213 13.1341C20.067 13.0247 20.2488 12.9796 20.4267 13.0086C20.5148 13.0229 20.5993 13.0551 20.6754 13.1031C20.7515 13.1512 20.8176 13.2142 20.8701 13.2887C20.9226 13.3631 20.9603 13.4475 20.9812 13.537C21.002 13.6265 21.0056 13.7194 20.9917 13.8103C20.6422 16.0897 19.5173 18.1661 17.8186 19.6669C16.12 21.1677 13.9588 21.9949 11.7226 22Z" fill="#17181D"/>
<path d="M2.70578 22H2.7007C2.60797 21.9993 2.51628 21.9803 2.43087 21.9439C2.34546 21.9076 2.26801 21.8546 2.20293 21.7882C2.13786 21.7217 2.08645 21.6429 2.05163 21.5564C2.01682 21.4699 1.99928 21.3774 2.00002 21.284L2.04237 15.7052C2.04386 15.5169 2.11955 15.3368 2.25283 15.2046C2.38611 15.0724 2.56607 14.9988 2.75321 15L8.29706 15.0432C8.48424 15.044 8.66345 15.1195 8.79528 15.2532C8.9271 15.387 9.00074 15.5679 8.99999 15.7563C8.99925 15.9447 8.92417 16.1251 8.79129 16.2577C8.6584 16.3904 8.47859 16.4645 8.29141 16.4638H8.28577L3.44823 16.4263L3.41153 21.2948C3.41005 21.4823 3.33505 21.6615 3.20287 21.7936C3.0707 21.9257 2.89203 21.9999 2.70578 22Z" fill="#17181D"/>
</svg>
