<svg width="40" height="40" viewBox="0 0 40 40" fill="none" xmlns="http://www.w3.org/2000/svg">
<path fill-rule="evenodd" clip-rule="evenodd" d="M3.63648 6.96465V28.0703C3.63648 29.1091 4.32375 30.1194 5.61737 30.982C5.85374 31.1398 6.11101 31.2931 6.38737 31.4417L0.101959 39.2517C-0.0125855 39.394 -0.0325856 39.5913 0.0519592 39.7537C0.136504 39.9161 0.308321 40.0125 0.489229 39.9987L6.39828 39.5399C6.52919 39.5289 6.65009 39.4628 6.72827 39.3563L6.93009 39.082H33.0699L33.2717 39.3563C33.3499 39.4628 33.4708 39.5289 33.6017 39.5399L39.5108 39.9987C39.6917 40.0125 39.8635 39.9161 39.948 39.7537C40.0326 39.5913 40.0126 39.394 39.898 39.2517L33.6126 31.4417C33.889 31.2931 34.1463 31.1398 34.3826 30.982C35.6763 30.1194 36.3635 29.1091 36.3635 28.0703V6.96465C36.3635 5.92588 35.6744 4.91556 34.3799 4.05206C31.679 2.25258 26.2436 1 19.9864 1C13.7291 1 8.30645 2.25349 5.61374 4.05298C4.32284 4.91556 3.63648 5.92588 3.63648 6.96465ZM7.22827 31.8528C6.13737 33.2082 1.47468 39.0012 1.47468 39.0012L6.12283 38.6406L10.3446 32.9145C9.17462 32.6099 8.12554 32.2529 7.22827 31.8528ZM32.7717 31.8528C31.8754 32.2529 30.8263 32.6099 29.6554 32.9145C30.769 34.425 33.8772 38.6406 33.8772 38.6406L38.5253 39.0012L32.7717 31.8528ZM8.96008 36.3291L7.60736 38.1643H32.3926L31.0399 36.3291H8.96008ZM11.3064 33.1467L9.63644 35.4114H30.3636L28.6936 33.1467C26.1818 33.7074 23.1991 34.035 20 34.035C16.8009 34.035 13.8182 33.7074 11.3064 33.1467ZM24.5454 28.988C24.5454 28.8916 24.4891 28.8054 24.41 28.7182C24.2763 28.5704 24.0781 28.4383 23.8327 28.3153C22.9682 27.8831 21.5718 27.6115 20 27.6115C18.4282 27.6115 17.0318 27.8831 16.1673 28.3153C15.9218 28.4383 15.7237 28.5704 15.59 28.7182C15.5109 28.8054 15.4546 28.8916 15.4546 28.988V32.887C16.8937 33.0366 18.4191 33.1173 20 33.1173C21.5809 33.1173 23.1063 33.0366 24.5454 32.887V28.988ZM4.54556 28.0703C4.54556 28.5695 4.79647 29.0412 5.22829 29.4899C5.69737 29.9763 6.37101 30.4268 7.21191 30.837C7.21191 30.837 7.37282 30.9141 7.37373 30.9141C9.17008 31.7592 11.6573 32.4135 14.5455 32.7824V28.988C14.5455 28.5576 14.7928 28.1263 15.2973 27.7693C16.18 27.1444 17.9527 26.6939 20 26.6939C22.0473 26.6939 23.82 27.1444 24.7027 27.7693C25.2072 28.1263 25.4545 28.5576 25.4545 28.988V32.7824C28.3427 32.4135 30.8299 31.7583 32.6263 30.9141C32.6272 30.9159 32.7881 30.837 32.7881 30.837C33.629 30.4268 34.3026 29.9763 34.7717 29.4899C35.2035 29.0412 35.4544 28.5695 35.4544 28.0703V6.96465C35.4544 6.46545 35.2026 5.99379 34.7699 5.54506C34.2744 5.03118 33.549 4.55768 32.6408 4.12915C29.7845 2.78297 25.1754 1.91764 19.9864 1.91764C14.7982 1.91764 10.1982 2.78297 7.35009 4.12915C6.44464 4.55768 5.72101 5.03118 5.22738 5.54506C4.79556 5.99379 4.54556 6.46545 4.54556 6.96465V28.0703ZM33.6363 28.5255C33.6363 27.7703 33.0208 27.1527 32.2545 27.1527H29.5636C28.7972 27.1527 28.1818 27.7703 28.1818 28.5255C28.1818 28.5282 28.1818 28.5301 28.1818 28.5328C28.1818 29.288 28.7972 29.9056 29.5636 29.9056H32.2545C33.0208 29.9056 33.6363 29.288 33.6363 28.5328V28.5255ZM11.8182 28.5255C11.8182 27.7703 11.2028 27.1527 10.4364 27.1527H7.74554C6.97918 27.1527 6.36373 27.7703 6.36373 28.5255C6.36373 28.5282 6.36373 28.5301 6.36373 28.5328C6.36373 29.288 6.97918 29.9056 7.74554 29.9056H10.4364C11.2028 29.9056 11.8182 29.288 11.8182 28.5328V28.5255ZM10.9092 28.5255V28.5328C10.9092 28.787 10.6946 28.988 10.4364 28.988H7.74554C7.48736 28.988 7.27282 28.787 7.27282 28.5328V28.5255C7.27282 28.2713 7.48736 28.0703 7.74554 28.0703H10.4364C10.6946 28.0703 10.9092 28.2713 10.9092 28.5255ZM32.7272 28.5255V28.5328C32.7272 28.787 32.5126 28.988 32.2545 28.988H29.5636C29.3054 28.988 29.0908 28.787 29.0908 28.5328V28.5255C29.0908 28.2713 29.3054 28.0703 29.5636 28.0703H32.2545C32.5126 28.0703 32.7272 28.2713 32.7272 28.5255ZM33.6363 9.25874C33.6363 8.8926 33.4899 8.54115 33.2281 8.28238C32.969 8.02635 32.619 7.88229 32.2535 7.88229C28.1699 7.88229 11.8301 7.88229 7.74645 7.88229C7.381 7.88229 7.031 8.02635 6.77191 8.28238C6.51009 8.54115 6.36373 8.8926 6.36373 9.25874V23.0233C6.36373 23.3895 6.51009 23.7409 6.77191 23.9997C7.031 24.2557 7.381 24.3998 7.74645 24.3998C11.8301 24.3998 28.1699 24.3998 32.2535 24.3998C32.619 24.3998 32.969 24.2557 33.2281 23.9997C33.4899 23.7409 33.6363 23.3895 33.6363 23.0233V9.25874ZM32.7272 9.25874V23.0233C32.7272 23.1435 32.6781 23.2591 32.5917 23.3445C32.5017 23.4326 32.3799 23.4821 32.2535 23.4821H7.74645C7.62009 23.4821 7.49827 23.4326 7.40827 23.3445C7.32191 23.2591 7.27282 23.1435 7.27282 23.0233V9.25874C7.27282 9.13853 7.32191 9.02291 7.40827 8.93757C7.49827 8.84947 7.62009 8.79992 7.74645 8.79992H32.2535C32.3799 8.79992 32.5017 8.84947 32.5917 8.93757C32.6781 9.02291 32.7272 9.13853 32.7272 9.25874ZM26.3636 4.64486C26.3636 4.28423 26.2163 3.93736 25.95 3.68134C25.6927 3.43449 25.3436 3.2941 24.9791 3.2941C22.7709 3.2941 17.2291 3.2941 15.0209 3.2941C14.6564 3.2941 14.3073 3.43449 14.05 3.68134C13.7837 3.93736 13.6364 4.28423 13.6364 4.64486C13.6364 4.95502 13.6364 5.30372 13.6364 5.61388C13.6364 5.97452 13.7837 6.32138 14.05 6.5774C14.3073 6.82425 14.6564 6.96465 15.0209 6.96465C17.2291 6.96465 22.7709 6.96465 24.9791 6.96465C25.3436 6.96465 25.6927 6.82425 25.95 6.5774C26.2163 6.32138 26.3636 5.97452 26.3636 5.61388V4.64486ZM12.7273 5.58452C12.7273 5.2193 12.581 4.86784 12.3182 4.60999C12.0601 4.3558 11.7101 4.21173 11.3446 4.21173C10.7982 4.21173 10.111 4.21173 9.56462 4.21173C9.19917 4.21173 8.84917 4.3558 8.59099 4.60999C8.32826 4.86784 8.1819 5.2193 8.1819 5.58452C8.1819 5.58727 8.1819 5.58911 8.1819 5.59186C8.1819 5.95708 8.32826 6.30854 8.59099 6.56639C8.84917 6.82058 9.19917 6.96465 9.56462 6.96465C10.111 6.96465 10.7982 6.96465 11.3446 6.96465C11.7101 6.96465 12.0601 6.82058 12.3182 6.56639C12.581 6.30854 12.7273 5.95708 12.7273 5.59186V5.58452ZM31.8181 5.58452C31.8181 5.2193 31.6717 4.86784 31.409 4.60999C31.1508 4.3558 30.8008 4.21173 30.4354 4.21173C29.889 4.21173 29.2017 4.21173 28.6554 4.21173C28.2899 4.21173 27.9399 4.3558 27.6818 4.60999C27.419 4.86784 27.2727 5.2193 27.2727 5.58452C27.2727 5.58727 27.2727 5.58911 27.2727 5.59186C27.2727 5.95708 27.419 6.30854 27.6818 6.56639C27.9399 6.82058 28.2899 6.96465 28.6554 6.96465C29.2017 6.96465 29.889 6.96465 30.4354 6.96465C30.8008 6.96465 31.1508 6.82058 31.409 6.56639C31.6717 6.30854 31.8181 5.95708 31.8181 5.59186V5.58452ZM25.4545 4.64486V5.61388C25.4545 5.72584 25.4063 5.83228 25.3236 5.91212C25.2327 5.99929 25.1081 6.04701 24.9791 6.04701H15.0209C14.8919 6.04701 14.7673 5.99929 14.6764 5.91212C14.5937 5.83228 14.5455 5.72584 14.5455 5.61388V4.64486C14.5455 4.53291 14.5937 4.42646 14.6764 4.34663C14.7673 4.25945 14.8919 4.21173 15.0209 4.21173H24.9791C25.1081 4.21173 25.2327 4.25945 25.3236 4.34663C25.4063 4.42646 25.4545 4.53291 25.4545 4.64486ZM11.8182 5.58452V5.59186C11.8182 5.71115 11.7691 5.82494 11.6837 5.90936C11.5937 5.99837 11.471 6.04701 11.3446 6.04701H9.56462C9.43826 6.04701 9.31553 5.99837 9.22553 5.90936C9.14008 5.82494 9.09099 5.71115 9.09099 5.59186V5.58452C9.09099 5.46523 9.14008 5.35144 9.22553 5.26702C9.31553 5.17801 9.43826 5.12937 9.56462 5.12937H11.3446C11.471 5.12937 11.5937 5.17801 11.6837 5.26702C11.7691 5.35144 11.8182 5.46523 11.8182 5.58452ZM30.909 5.58452V5.59186C30.909 5.71115 30.8599 5.82494 30.7745 5.90936C30.6845 5.99837 30.5617 6.04701 30.4354 6.04701H28.6554C28.529 6.04701 28.4063 5.99837 28.3163 5.90936C28.2308 5.82494 28.1818 5.71115 28.1818 5.59186V5.58452C28.1818 5.46523 28.2308 5.35144 28.3163 5.26702C28.4063 5.17801 28.529 5.12937 28.6554 5.12937H30.4354C30.5617 5.12937 30.6845 5.17801 30.7745 5.26702C30.8599 5.35144 30.909 5.46523 30.909 5.58452Z" fill="#17181D"/>
</svg>
