<svg width="24" height="24" viewBox="0 0 24 24" fill="none" xmlns="http://www.w3.org/2000/svg">
<path d="M11.9986 1.74088C12.3608 1.74088 12.7395 1.93845 12.937 2.31712L15.456 7.42096C15.6042 7.73377 15.9005 7.94781 16.2298 7.9972L21.8605 8.8204C22.7166 8.95211 23.0459 9.98934 22.4367 10.5985L18.3537 14.5499C18.1067 14.7804 17.9915 15.1261 18.0573 15.4719L19.0122 21.0861C19.1275 21.7611 18.6006 22.3044 17.9915 22.3044C17.8268 22.3044 17.6622 22.2715 17.514 22.1892L12.476 19.5385C12.3279 19.4561 12.1632 19.4232 11.9986 19.4232C11.8339 19.4232 11.6693 19.4561 11.5211 19.5385L6.48313 22.1892C6.31849 22.2715 6.15385 22.3044 6.00568 22.3044C5.39651 22.3044 4.86966 21.7611 4.98491 21.0861L5.93982 15.4719C6.00568 15.1426 5.89043 14.7968 5.64347 14.5499L1.54393 10.582C0.934764 9.98934 1.26404 8.93565 2.12017 8.80393L7.75086 7.98073C8.0966 7.93134 8.37649 7.71731 8.52467 7.40449L11.0437 2.30066C11.2577 1.92198 11.6199 1.74088 11.9986 1.74088ZM11.9986 1C11.3235 1 10.6979 1.37867 10.4016 1.98784L7.88257 7.09168C7.83318 7.174 7.75086 7.23985 7.65208 7.25632L2.02139 8.07952C1.34636 8.1783 0.803052 8.63929 0.58902 9.29785C0.374988 9.93995 0.556092 10.6479 1.03355 11.1254L5.11662 15.0932C5.18248 15.159 5.2154 15.2578 5.19894 15.3566L4.24403 20.9708C4.16171 21.4977 4.29342 22.0081 4.63916 22.4197C4.98491 22.8313 5.47883 23.0618 6.00568 23.0618C6.30203 23.0618 6.56545 22.9959 6.82888 22.8477L11.8669 20.197C11.9163 20.1806 11.9492 20.1641 11.9986 20.1641C12.048 20.1641 12.0974 20.1806 12.1303 20.197L17.1683 22.8477C17.4317 22.9794 17.7116 23.0618 17.9915 23.0618C18.5183 23.0618 19.0122 22.8313 19.358 22.4197C19.6873 22.0245 19.8354 21.4977 19.7531 20.9708L18.7982 15.3566C18.7817 15.2578 18.8147 15.159 18.8805 15.0932L22.9636 11.1254C23.4575 10.6479 23.6222 9.95641 23.4081 9.29785C23.1941 8.65576 22.6508 8.1783 21.9758 8.07952L16.3451 7.25632C16.2463 7.23985 16.164 7.174 16.1146 7.09168L13.5956 1.98784C13.2828 1.37867 12.6736 1 11.9986 1Z" fill="#D9D9D9"/>
</svg>
