<svg width="24" height="24" viewBox="0 0 24 24" fill="none" xmlns="http://www.w3.org/2000/svg">
<path d="M12 7.70312C11.1502 7.70313 10.3194 7.95513 9.61279 8.42728C8.90617 8.89943 8.35543 9.57051 8.03021 10.3557C7.70499 11.1408 7.61989 12.0048 7.78569 12.8383C7.95149 13.6718 8.36072 14.4374 8.96165 15.0384C9.56258 15.6393 10.3282 16.0485 11.1617 16.2143C11.9952 16.3801 12.8592 16.295 13.6443 15.9698C14.4295 15.6446 15.1006 15.0938 15.5727 14.3872C16.0449 13.6806 16.2969 12.8498 16.2969 12C16.2969 10.8604 15.8442 9.76747 15.0384 8.96165C14.2325 8.15583 13.1396 7.70312 12 7.70312ZM12 15.2656C11.3541 15.2656 10.7227 15.0741 10.1857 14.7153C9.64869 14.3564 9.23013 13.8464 8.98296 13.2497C8.73579 12.653 8.67112 11.9964 8.79712 11.3629C8.92313 10.7294 9.23415 10.1476 9.69086 9.69085C10.1476 9.23415 10.7294 8.92313 11.3629 8.79712C11.9964 8.67112 12.653 8.73579 13.2497 8.98296C13.8464 9.23012 14.3564 9.64869 14.7153 10.1857C15.0741 10.7227 15.2656 11.3541 15.2656 12C15.2656 12.8661 14.9216 13.6967 14.3091 14.3091C13.6967 14.9216 12.8661 15.2656 12 15.2656Z" fill="#17181D"/>
<path d="M21.7969 9.25H20.262C20.2263 9.24973 20.1915 9.23833 20.1626 9.21739C20.1336 9.19644 20.1119 9.16699 20.1005 9.13313C20.0006 8.84943 19.8858 8.57118 19.7567 8.29953C19.7406 8.26748 19.7349 8.23118 19.7405 8.19574C19.746 8.16029 19.7625 8.12747 19.7877 8.10187L20.8722 7.01562C20.9839 6.9039 21.0726 6.77127 21.133 6.62529C21.1935 6.47931 21.2246 6.32285 21.2246 6.16484C21.2246 6.00684 21.1935 5.85038 21.133 5.7044C21.0726 5.55842 20.9839 5.42578 20.8722 5.31406L18.6842 3.12781C18.5725 3.01608 18.4399 2.92745 18.2939 2.86698C18.1479 2.80651 17.9914 2.77538 17.8334 2.77538C17.6754 2.77538 17.519 2.80651 17.373 2.86698C17.227 2.92745 17.0944 3.01608 16.9827 3.12781L15.8981 4.21234C15.8725 4.23749 15.8397 4.25399 15.8043 4.25953C15.7688 4.26508 15.7325 4.2594 15.7005 4.24328C15.4288 4.11412 15.1506 3.99938 14.8669 3.89953C14.833 3.8881 14.8036 3.86639 14.7826 3.83743C14.7617 3.80847 14.7503 3.77371 14.75 3.73797V2.20312C14.75 1.88404 14.6232 1.57802 14.3976 1.35239C14.172 1.12676 13.866 1 13.5469 1H10.4531C10.134 1 9.82802 1.12676 9.60239 1.35239C9.37676 1.57802 9.25 1.88404 9.25 2.20312V3.73797C9.24973 3.77371 9.23833 3.80847 9.21739 3.83743C9.19644 3.86639 9.16699 3.8881 9.13313 3.89953C8.84943 3.99942 8.57118 4.11416 8.29953 4.24328C8.26748 4.2594 8.23118 4.26508 8.19574 4.25953C8.16029 4.25399 8.12747 4.23749 8.10187 4.21234L7.01562 3.12781C6.9039 3.01608 6.77127 2.92745 6.62529 2.86698C6.47931 2.80651 6.32285 2.77538 6.16484 2.77538C6.00684 2.77538 5.85038 2.80651 5.7044 2.86698C5.55842 2.92745 5.42578 3.01608 5.31406 3.12781L3.12781 5.31578C3.01608 5.4275 2.92745 5.56014 2.86698 5.70612C2.80651 5.8521 2.77538 6.00856 2.77538 6.16656C2.77538 6.32457 2.80651 6.48103 2.86698 6.62701C2.92745 6.77298 3.01608 6.90562 3.12781 7.01734L4.21234 8.10187C4.23749 8.12747 4.25399 8.16029 4.25953 8.19574C4.26508 8.23118 4.2594 8.26748 4.24328 8.29953C4.11412 8.57116 3.99938 8.84941 3.89953 9.13313C3.8881 9.16699 3.86639 9.19644 3.83743 9.21739C3.80847 9.23833 3.77371 9.24973 3.73797 9.25H2.20312C1.88404 9.25 1.57802 9.37676 1.35239 9.60239C1.12676 9.82802 1 10.134 1 10.4531L1 13.5469C1 13.866 1.12676 14.172 1.35239 14.3976C1.57802 14.6232 1.88404 14.75 2.20312 14.75H3.73797C3.77371 14.7503 3.80847 14.7617 3.83743 14.7826C3.86639 14.8036 3.8881 14.833 3.89953 14.8669C3.99942 15.1506 4.11416 15.4288 4.24328 15.7005C4.2594 15.7325 4.26508 15.7688 4.25953 15.8043C4.25399 15.8397 4.23749 15.8725 4.21234 15.8981L3.12781 16.9844C3.01608 17.0961 2.92745 17.2287 2.86698 17.3747C2.80651 17.5207 2.77538 17.6771 2.77538 17.8352C2.77538 17.9932 2.80651 18.1496 2.86698 18.2956C2.92745 18.4416 3.01608 18.5742 3.12781 18.6859L5.31578 20.8739C5.4275 20.9856 5.56014 21.0743 5.70612 21.1347C5.8521 21.1952 6.00856 21.2263 6.16656 21.2263C6.32457 21.2263 6.48103 21.1952 6.62701 21.1347C6.77298 21.0743 6.90562 20.9856 7.01734 20.8739L8.10187 19.7894C8.12747 19.7642 8.16029 19.7477 8.19574 19.7422C8.23118 19.7366 8.26748 19.7423 8.29953 19.7584C8.57116 19.8876 8.84941 20.0023 9.13313 20.1022C9.16699 20.1136 9.19644 20.1353 9.21739 20.1643C9.23833 20.1932 9.24973 20.228 9.25 20.2638V21.7969C9.25 22.116 9.37676 22.422 9.60239 22.6476C9.82802 22.8732 10.134 23 10.4531 23H13.5469C13.866 23 14.172 22.8732 14.3976 22.6476C14.6232 22.422 14.75 22.116 14.75 21.7969V20.262C14.7503 20.2263 14.7617 20.1915 14.7826 20.1626C14.8036 20.1336 14.833 20.1119 14.8669 20.1005C15.1506 20.0006 15.4288 19.8858 15.7005 19.7567C15.7325 19.7406 15.7688 19.7349 15.8043 19.7405C15.8397 19.746 15.8725 19.7625 15.8981 19.7877L16.9844 20.8722C17.0961 20.9839 17.2287 21.0726 17.3747 21.133C17.5207 21.1935 17.6771 21.2246 17.8352 21.2246C17.9932 21.2246 18.1496 21.1935 18.2956 21.133C18.4416 21.0726 18.5742 20.9839 18.6859 20.8722L20.8739 18.6842C20.9856 18.5725 21.0743 18.4399 21.1347 18.2939C21.1952 18.1479 21.2263 17.9914 21.2263 17.8334C21.2263 17.6754 21.1952 17.519 21.1347 17.373C21.0743 17.227 20.9856 17.0944 20.8739 16.9827L19.7894 15.8981C19.7642 15.8725 19.7477 15.8397 19.7422 15.8043C19.7366 15.7688 19.7423 15.7325 19.7584 15.7005C19.8876 15.4288 20.0023 15.1506 20.1022 14.8669C20.1136 14.833 20.1353 14.8036 20.1643 14.7826C20.1932 14.7617 20.228 14.7503 20.2638 14.75H21.7969C22.116 14.75 22.422 14.6232 22.6476 14.3976C22.8732 14.172 23 13.866 23 13.5469V10.4531C23 10.134 22.8732 9.82802 22.6476 9.60239C22.422 9.37676 22.116 9.25 21.7969 9.25ZM21.9688 13.5469C21.9688 13.5925 21.9506 13.6362 21.9184 13.6684C21.8862 13.7006 21.8425 13.7188 21.7969 13.7188H20.262C20.0127 13.719 19.7697 13.7967 19.5665 13.9411C19.3633 14.0856 19.2099 14.2895 19.1277 14.5248C19.0397 14.774 18.9387 15.0184 18.8252 15.257C18.7163 15.4819 18.6801 15.7352 18.7217 15.9816C18.7632 16.228 18.8805 16.4553 19.0572 16.632L20.1417 17.7166C20.1737 17.7488 20.1917 17.7923 20.1917 17.8377C20.1917 17.8831 20.1737 17.9267 20.1417 17.9589L17.9555 20.1434C17.9233 20.1754 17.8797 20.1934 17.8343 20.1934C17.7889 20.1934 17.7453 20.1754 17.7131 20.1434L16.6286 19.0589C16.4519 18.8822 16.2245 18.765 15.9781 18.7234C15.7317 18.6818 15.4785 18.718 15.2536 18.8269C15.0144 18.9405 14.7695 19.0415 14.5197 19.1294C14.2847 19.2119 14.0811 19.3654 13.937 19.5686C13.7929 19.7718 13.7155 20.0147 13.7153 20.2638V21.7969C13.7153 21.8425 13.6972 21.8862 13.665 21.9184C13.6327 21.9506 13.589 21.9688 13.5434 21.9688H10.4531C10.4075 21.9688 10.3638 21.9506 10.3316 21.9184C10.2994 21.8862 10.2812 21.8425 10.2812 21.7969V20.262C10.281 20.0127 10.2033 19.7697 10.0589 19.5665C9.91445 19.3633 9.71049 19.2099 9.47516 19.1277C9.22597 19.0397 8.98157 18.9387 8.74297 18.8252C8.51806 18.7163 8.26483 18.6801 8.01843 18.7217C7.77202 18.7632 7.54468 18.8805 7.36797 19.0572L6.28344 20.1417C6.25123 20.1737 6.20767 20.1917 6.16227 20.1917C6.11686 20.1917 6.0733 20.1737 6.04109 20.1417L3.85656 17.9555C3.82455 17.9233 3.80658 17.8797 3.80658 17.8343C3.80658 17.7889 3.82455 17.7453 3.85656 17.7131L4.94109 16.6286C5.11777 16.4519 5.23504 16.2245 5.27662 15.9781C5.3182 15.7317 5.28203 15.4785 5.17313 15.2536C5.05948 15.0144 4.95851 14.7695 4.87063 14.5197C4.7876 14.2856 4.63415 14.0829 4.43135 13.9395C4.22856 13.7961 3.98635 13.719 3.73797 13.7188H2.20312C2.15754 13.7188 2.11382 13.7006 2.08159 13.6684C2.04936 13.6362 2.03125 13.5925 2.03125 13.5469V10.4531C2.03125 10.4075 2.04936 10.3638 2.08159 10.3316C2.11382 10.2994 2.15754 10.2812 2.20312 10.2812H3.73797C3.98726 10.281 4.23031 10.2033 4.43353 10.0589C4.63674 9.91445 4.79008 9.71049 4.87234 9.47516C4.96029 9.22597 5.06126 8.98157 5.17484 8.74297C5.28375 8.51806 5.31992 8.26483 5.27834 8.01843C5.23676 7.77202 5.11949 7.54468 4.94281 7.36797L3.85828 6.28344C3.82627 6.25123 3.8083 6.20767 3.8083 6.16227C3.8083 6.11686 3.82627 6.0733 3.85828 6.04109L6.04453 3.85656C6.07673 3.82455 6.1203 3.80658 6.1657 3.80658C6.21111 3.80658 6.25467 3.82455 6.28688 3.85656L7.37141 4.94109C7.54812 5.11777 7.77546 5.23504 8.02186 5.27662C8.26827 5.3182 8.5215 5.28203 8.74641 5.17313C8.98556 5.05948 9.23054 4.95851 9.48031 4.87063C9.7144 4.7876 9.91706 4.63415 10.0605 4.43135C10.2039 4.22856 10.281 3.98635 10.2812 3.73797V2.20312C10.2812 2.15754 10.2994 2.11382 10.3316 2.08159C10.3638 2.04936 10.4075 2.03125 10.4531 2.03125H13.5469C13.5925 2.03125 13.6362 2.04936 13.6684 2.08159C13.7006 2.11382 13.7188 2.15754 13.7188 2.20312V3.73797C13.719 3.98726 13.7967 4.23031 13.9411 4.43353C14.0856 4.63674 14.2895 4.79008 14.5248 4.87234C14.774 4.96029 15.0184 5.06126 15.257 5.17484C15.4819 5.28375 15.7352 5.31992 15.9816 5.27834C16.228 5.23676 16.4553 5.11949 16.632 4.94281L17.7166 3.85828C17.7488 3.82627 17.7923 3.8083 17.8377 3.8083C17.8831 3.8083 17.9267 3.82627 17.9589 3.85828L20.1469 6.04625C20.1789 6.07845 20.1969 6.12201 20.1969 6.16742C20.1969 6.21283 20.1789 6.25639 20.1469 6.28859L19.0623 7.37313C18.8857 7.54984 18.7684 7.77718 18.7268 8.02358C18.6852 8.26998 18.7214 8.52322 18.8303 8.74813C18.944 8.98728 19.0449 9.23225 19.1328 9.48203C19.2154 9.71704 19.3688 9.92063 19.572 10.0647C19.7752 10.2088 20.0181 10.2863 20.2672 10.2864H21.7969C21.8425 10.2864 21.8862 10.3045 21.9184 10.3367C21.9506 10.369 21.9688 10.4127 21.9688 10.4583V13.5469Z" fill="#17181D"/>
</svg>
