<svg width="24" height="24" viewBox="0 0 24 24" fill="none" xmlns="http://www.w3.org/2000/svg">
<path fill-rule="evenodd" clip-rule="evenodd" d="M18.0079 22.6831C17.7775 22.6831 17.5634 22.6337 17.3494 22.5184L12.3114 19.8677C12.2126 19.8183 12.1138 19.7854 11.9986 19.7854C11.8833 19.7854 11.7846 19.8183 11.6858 19.8677L6.64779 22.5184C6.43376 22.6337 6.21973 22.6831 5.98923 22.6831C5.57763 22.6831 5.18249 22.502 4.90261 22.1727C4.63918 21.8599 4.52393 21.4483 4.58979 21.0367L5.5447 15.4224C5.57763 15.2084 5.51177 14.9779 5.34713 14.8297L1.28053 10.8454C0.901855 10.4668 0.753679 9.907 0.918319 9.39661C1.08296 8.88623 1.52749 8.50756 2.05433 8.4417L7.68502 7.6185C7.89905 7.58557 8.09662 7.45386 8.19541 7.25629L10.7144 2.15245C10.9614 1.675 11.4388 1.36218 11.9821 1.36218C12.5254 1.36218 13.0029 1.65853 13.2499 2.15245L15.7688 7.25629C15.8676 7.45386 16.0487 7.58557 16.2792 7.6185L21.9099 8.4417C22.4368 8.52402 22.8813 8.88623 23.0459 9.39661C23.2106 9.907 23.0789 10.4668 22.6837 10.8454L18.6007 14.8133C18.436 14.9614 18.3702 15.1919 18.4031 15.406L19.358 21.0202C19.4239 21.4318 19.3251 21.8434 19.0452 22.1562C18.8147 22.4855 18.4195 22.6831 18.0079 22.6831Z" fill="#FFD36E"/>
</svg>
