<svg width="27" height="27" viewBox="0 0 27 27" fill="none" xmlns="http://www.w3.org/2000/svg">
<path d="M11.9118 3.375C11.4732 3.375 11.1176 3.75276 11.1176 4.21875C11.1176 4.68474 11.4732 5.0625 11.9118 5.0625H15.0882C15.5267 5.0625 15.8824 4.68474 15.8824 4.21875C15.8824 3.75276 15.5267 3.375 15.0882 3.375H11.9118Z" fill="#CECECE"/>
<path d="M2.38235 5.90625C2.38235 2.64431 4.87112 0 7.94118 0H19.0588C22.1289 0 24.6176 2.64431 24.6176 5.90625V10.125H26.2059C26.6444 10.125 27 10.5028 27 10.9688C27 11.4347 26.6444 11.8125 26.2059 11.8125H24.6176V24.4688C24.6176 25.8667 23.551 27 22.2353 27H20.6471C19.3314 27 18.2647 25.8667 18.2647 24.4688V23.625H8.73529V24.4688C8.73529 25.8667 7.66868 27 6.35294 27H4.76471C3.44896 27 2.38235 25.8667 2.38235 24.4688V11.8125H0.794118C0.355542 11.8125 0 11.4347 0 10.9688C0 10.5028 0.355542 10.125 0.794118 10.125H2.38235V5.90625ZM23.0294 5.90625C23.0294 3.5763 21.2517 1.6875 19.0588 1.6875H7.94118C5.74828 1.6875 3.97059 3.5763 3.97059 5.90625V13.5H23.0294V5.90625ZM19.8529 23.625V24.4688C19.8529 24.9347 20.2085 25.3125 20.6471 25.3125H22.2353C22.6738 25.3125 23.0294 24.9347 23.0294 24.4688V23.625H19.8529ZM3.97059 23.625V24.4688C3.97059 24.9347 4.32613 25.3125 4.76471 25.3125H6.35294C6.79152 25.3125 7.14706 24.9347 7.14706 24.4688V23.625H3.97059ZM10.3235 18.5625C10.3235 17.6305 9.61244 16.875 8.73529 16.875C7.85814 16.875 7.14706 17.6305 7.14706 18.5625C7.14706 19.4945 7.85814 20.25 8.73529 20.25C9.61244 20.25 10.3235 19.4945 10.3235 18.5625ZM18.2647 20.25C19.1419 20.25 19.8529 19.4945 19.8529 18.5625C19.8529 17.6305 19.1419 16.875 18.2647 16.875C17.3875 16.875 16.6765 17.6305 16.6765 18.5625C16.6765 19.4945 17.3875 20.25 18.2647 20.25Z" fill="#CECECE"/>
</svg>
